<svg width="21" height="20" viewBox="0 0 21 20" fill="none" xmlns="http://www.w3.org/2000/svg">
<path d="M12.5001 17.7778H18.1425V2.22222H2.34386V17.7778H10.2432V12.2222H7.98622V10H10.2432V8.16222C10.2432 6.67667 10.4011 6.13778 10.6946 5.59444C10.9836 5.05687 11.4303 4.61743 11.9765 4.33333C12.4076 4.10556 12.9436 3.96889 13.8802 3.91C14.2515 3.88667 14.7322 3.91556 15.3224 3.99889V6.11H14.7571C13.7222 6.11 13.2946 6.15778 13.0395 6.29222C12.8873 6.36929 12.7634 6.49127 12.6852 6.64111C12.5498 6.89222 12.5001 7.14111 12.5001 8.16111V10H15.3213L14.7571 12.2222H12.5001V17.7778ZM1.21539 0H19.2709C19.5702 0 19.8573 0.117063 20.0689 0.325437C20.2805 0.533811 20.3994 0.816426 20.3994 1.11111V18.8889C20.3994 19.1836 20.2805 19.4662 20.0689 19.6746C19.8573 19.8829 19.5702 20 19.2709 20H1.21539C0.916097 20 0.629065 19.8829 0.417436 19.6746C0.205806 19.4662 0.0869141 19.1836 0.0869141 18.8889V1.11111C0.0869141 0.816426 0.205806 0.533811 0.417436 0.325437C0.629065 0.117063 0.916097 0 1.21539 0Z" fill="black"/>
</svg>
