<svg width="134" height="51" viewBox="0 0 134 51" fill="none" xmlns="http://www.w3.org/2000/svg">
<path d="M26.4378 0L31.311 10.7067L41.6836 4.84827L39.1961 16.3136L51.106 17.5412L42.2079 25.3859L51.106 33.2306L39.1961 34.4581L41.6836 45.9235L31.311 40.0651L26.4378 50.7718L21.5645 40.0651L11.1919 45.9235L13.6794 34.4581L1.76948 33.2306L10.6676 25.3859L1.76948 17.5412L13.6794 16.3136L11.1919 4.84827L21.5645 10.7067L26.4378 0Z" fill="white"/>
<path d="M40.5902 11.9781C40.4975 14.2165 40.4512 16.6138 40.4512 19.17C40.4512 21.7395 40.4975 24.1435 40.5902 26.3818H33.4778L28.6699 15.5343L29.0275 26.3818H23.9216C24.0276 23.8123 24.0806 21.4084 24.0806 19.17C24.0806 16.9449 24.0276 14.5476 23.9216 11.9781H31.2328L36.0605 23.1236L35.7228 11.9781H40.5902ZM48.5758 26.5805C46.3109 26.5805 44.6421 26.064 43.5692 25.0309C42.5097 23.9845 41.9799 22.6137 41.9799 20.9183C41.9799 19.2627 42.5097 17.9184 43.5692 16.8853C44.6421 15.8522 46.3109 15.3357 48.5758 15.3357C50.0989 15.3357 51.3704 15.5873 52.3903 16.0906C53.4234 16.5807 54.185 17.2495 54.675 18.0972C55.1651 18.9316 55.4101 19.872 55.4101 20.9183C55.4101 22.6269 54.8406 23.9978 53.7015 25.0309C52.5757 26.064 50.8671 26.5805 48.5758 26.5805ZM48.6552 23.2031C49.5162 23.2031 50.1585 22.9978 50.5824 22.5872C51.0062 22.1766 51.2181 21.6269 51.2181 20.9382C51.2181 20.2892 51.0062 19.7594 50.5824 19.3488C50.1585 18.925 49.5162 18.7131 48.6552 18.7131C47.7943 18.7131 47.1652 18.9184 46.7679 19.329C46.3705 19.7396 46.1718 20.276 46.1718 20.9382C46.1718 21.6269 46.3705 22.1766 46.7679 22.5872C47.1652 22.9978 47.7943 23.2031 48.6552 23.2031ZM61.4165 18.4747C61.9728 16.4747 63.3569 15.4747 65.5688 15.4747C65.9529 15.4747 66.3237 15.5012 66.6813 15.5542L66.0456 20.0045C65.092 19.6468 64.3105 19.468 63.7013 19.468C62.9463 19.468 62.39 19.6932 62.0324 20.1435C61.6748 20.5939 61.496 21.1965 61.496 21.9514V21.9316L61.4761 23.2428C61.4761 24.1832 61.5026 25.2295 61.5556 26.3818H56.8073C56.9133 24.4746 56.9663 22.6733 56.9663 20.978C56.9663 19.2826 56.9133 17.4681 56.8073 15.5343C57.6815 15.5741 58.3503 15.5939 58.8139 15.5939C59.304 15.5939 59.9728 15.5741 60.8205 15.5343L61.4165 18.4747ZM77.2735 19.0906C76.055 19.0111 74.9424 18.9515 73.9358 18.9118L73.916 21.0177C73.916 21.7329 74.0683 22.2958 74.3729 22.7064C74.6908 23.1037 75.2471 23.3024 76.0417 23.3024C76.3464 23.3024 76.6378 23.2759 76.9159 23.2229C76.8629 23.713 76.8364 24.2097 76.8364 24.713C76.8364 24.9514 76.8497 25.4944 76.8762 26.3421C76.2934 26.4481 75.8033 26.5143 75.406 26.5408C75.0086 26.5673 74.4921 26.5805 73.8563 26.5805C72.3067 26.5805 71.2074 26.2097 70.5584 25.4679C69.9226 24.713 69.6048 23.6666 69.6048 22.3289L69.6246 18.9714C69.0021 18.9979 68.3531 19.0376 67.6776 19.0906V15.5741C68.3664 15.5741 68.9491 15.3555 69.426 14.9184C69.9028 14.4814 70.1875 13.9582 70.2802 13.3489H75.6841C75.0086 14.2761 74.2603 15.0178 73.4391 15.5741H77.2735V19.0906ZM86.2077 26.3818C86.2872 24.4348 86.3269 22.6402 86.3269 20.9978C86.3269 20.415 86.1812 19.9515 85.8898 19.6071C85.6117 19.2627 85.2541 19.0906 84.817 19.0906C84.3534 19.0906 83.9561 19.3157 83.625 19.7661C83.3071 20.2164 83.1482 20.8323 83.1482 21.6137L83.1283 21.574C83.1283 23.7329 83.1548 25.3355 83.2078 26.3818H78.4595C78.5655 24.4746 78.6184 21.8918 78.6184 18.6336C78.6184 15.3754 78.5655 12.7927 78.4595 10.8854H83.1879L83.2078 17.0045L83.1879 18.0575C83.5058 17.1303 83.976 16.4482 84.5985 16.0111C85.2342 15.5608 85.9494 15.3357 86.7441 15.3357C87.5388 15.3357 88.2275 15.5145 88.8103 15.8721C89.3931 16.2164 89.8302 16.6866 90.1216 17.2826C90.4262 17.8787 90.5785 18.5475 90.5785 19.2892V22.1501C90.5785 23.9117 90.6116 25.3222 90.6778 26.3818H86.2077ZM102.783 21.415H96.3065C96.4124 21.9978 96.6707 22.4746 97.0813 22.8455C97.5051 23.2031 98.1011 23.3819 98.8693 23.3819C99.4256 23.3819 99.9488 23.2759 100.439 23.064C100.929 22.8388 101.32 22.5276 101.611 22.1302C102.498 22.5673 103.677 23.0375 105.147 23.5408C104.737 24.468 103.988 25.2097 102.902 25.766C101.83 26.309 100.426 26.5805 98.6905 26.5805C96.4389 26.5805 94.7701 26.064 93.684 25.0309C92.6112 23.9845 92.0747 22.6137 92.0747 20.9183C92.0747 19.2627 92.6112 17.9184 93.684 16.8853C94.7568 15.8522 96.4257 15.3357 98.6905 15.3357C100.042 15.3357 101.214 15.5608 102.207 16.0111C103.2 16.4615 103.962 17.0906 104.492 17.8985C105.022 18.6932 105.286 19.6071 105.286 20.6402C105.286 20.9846 105.273 21.2428 105.247 21.415H102.783ZM98.9687 18.3356C98.3064 18.3356 97.7634 18.4614 97.3396 18.7131C96.9157 18.9647 96.6177 19.3091 96.4455 19.7462H101.134C100.975 19.3223 100.717 18.9846 100.359 18.733C100.002 18.4681 99.5382 18.3356 98.9687 18.3356ZM111.279 18.4747C111.835 16.4747 113.219 15.4747 115.431 15.4747C115.815 15.4747 116.186 15.5012 116.543 15.5542L115.908 20.0045C114.954 19.6468 114.173 19.468 113.563 19.468C112.808 19.468 112.252 19.6932 111.894 20.1435C111.537 20.5939 111.358 21.1965 111.358 21.9514V21.9316L111.338 23.2428C111.338 24.1832 111.365 25.2295 111.418 26.3818H106.669C106.775 24.4746 106.828 22.6733 106.828 20.978C106.828 19.2826 106.775 17.4681 106.669 15.5343C107.544 15.5741 108.212 15.5939 108.676 15.5939C109.166 15.5939 109.835 15.5741 110.683 15.5343L111.279 18.4747ZM125.884 26.3818C125.963 24.4348 126.003 22.6402 126.003 20.9978C126.003 20.415 125.857 19.9515 125.566 19.6071C125.288 19.2627 124.93 19.0906 124.493 19.0906C124.056 19.0906 123.685 19.2892 123.381 19.6866C123.076 20.0707 122.897 20.6005 122.844 21.276C122.818 22.2826 122.805 22.9978 122.805 23.4216C122.805 24.3223 122.831 25.309 122.884 26.3818H118.136C118.242 24.4746 118.295 22.6733 118.295 20.978C118.295 19.2826 118.242 17.4681 118.136 15.5343C119.01 15.5741 119.679 15.5939 120.142 15.5939C120.632 15.5939 121.301 15.5741 122.149 15.5343L122.725 18.4548C123.03 17.3952 123.507 16.6138 124.156 16.1105C124.804 15.5939 125.559 15.3357 126.42 15.3357C127.215 15.3357 127.904 15.5145 128.487 15.8721C129.069 16.2164 129.506 16.6866 129.798 17.2826C130.102 17.8787 130.255 18.5475 130.255 19.2892V22.1501C130.255 23.9117 130.288 25.3222 130.354 26.3818H125.884ZM28.7692 38.3687C32.6102 38.3422 35.789 38.2759 38.3055 38.17C38.1333 38.8455 38.0274 39.4945 37.9876 40.117C37.9479 40.7395 37.928 41.4944 37.928 42.3818H23.9216C24.0276 39.8123 24.0806 37.4084 24.0806 35.17C24.0806 32.9317 24.0276 30.5277 23.9216 27.9582H28.7692V38.3687ZM42.5514 30.3622C41.7169 30.3622 41.0944 30.1569 40.6838 29.7463C40.2865 29.3357 40.0878 28.7993 40.0878 28.137C40.0878 27.488 40.2865 26.9516 40.6838 26.5278C41.0944 26.104 41.7169 25.892 42.5514 25.892C43.346 25.892 43.9553 26.1106 44.3791 26.5477C44.803 26.9715 45.0149 27.5013 45.0149 28.137C45.0149 28.7993 44.8096 29.3357 44.399 29.7463C43.9884 30.1569 43.3725 30.3622 42.5514 30.3622ZM40.2468 42.3818C40.3395 40.2494 40.3858 38.4879 40.3858 37.0972C40.3858 35.4416 40.3328 33.5873 40.2269 31.5343H44.995C44.8891 33.5078 44.8361 35.3621 44.8361 37.0972C44.8361 38.5541 44.8824 40.3156 44.9752 42.3818H40.2468ZM56.1734 31.5343H59.9879C59.9217 33.7065 59.8886 36.7925 59.8886 40.7925C59.8886 42.3686 59.5707 43.66 58.935 44.6666C58.3125 45.6732 57.4847 46.4016 56.4516 46.852C55.4185 47.3155 54.2662 47.5473 52.9947 47.5473C51.7364 47.5473 50.6106 47.3619 49.6173 46.991C48.6239 46.6334 47.8689 46.15 47.3524 45.5407L48.2464 42.501C48.9616 42.9116 49.6371 43.203 50.2729 43.3752C50.9086 43.5606 51.5709 43.6533 52.2596 43.6533C54.5112 43.6533 55.637 42.6997 55.637 40.7925C55.637 40.5143 55.6436 40.3156 55.6569 40.1964C55.6569 40.117 55.6569 40.011 55.6569 39.8786C55.6701 39.7461 55.6701 39.5739 55.6569 39.362C54.9814 41.2428 53.551 42.1832 51.3656 42.1832C50.4782 42.1832 49.6835 41.9448 48.9815 41.4679C48.2928 40.9911 47.7564 40.3488 47.3723 39.5408C46.9882 38.7196 46.7961 37.819 46.7961 36.8389C46.7961 35.8323 46.9882 34.9118 47.3723 34.0773C47.7564 33.2297 48.2928 32.5608 48.9815 32.0707C49.6702 31.5807 50.4451 31.3357 51.306 31.3357C53.5443 31.3357 55.0013 32.1237 55.6768 33.6999L56.1734 31.5343ZM53.4318 39.0044C53.7364 39.0044 54.0543 38.9382 54.3854 38.8057C54.7165 38.66 55.0013 38.4349 55.2397 38.1302C55.4781 37.8124 55.5973 37.4217 55.5973 36.9581C55.5973 36.1369 55.4119 35.5541 55.041 35.2098C54.6702 34.8522 54.1205 34.6734 53.392 34.6734C52.7563 34.6734 52.253 34.8853 51.8821 35.3091C51.5113 35.7329 51.3258 36.2826 51.3258 36.9581C51.3258 37.5673 51.5245 38.064 51.9219 38.4481C52.3324 38.819 52.8357 39.0044 53.4318 39.0044ZM69.3283 42.3818C69.4078 40.4348 69.4475 38.6402 69.4475 36.9978C69.4475 36.415 69.3018 35.9515 69.0105 35.6071C68.7323 35.2627 68.3747 35.0906 67.9376 35.0906C67.4741 35.0906 67.0767 35.3157 66.7456 35.766C66.4277 36.2164 66.2688 36.8323 66.2688 37.6137L66.2489 37.574C66.2489 39.7329 66.2754 41.3355 66.3284 42.3818H61.5801C61.6861 40.4746 61.7391 37.8918 61.7391 34.6336C61.7391 31.3754 61.6861 28.7927 61.5801 26.8854H66.3085L66.3284 33.0045L66.3085 34.0575C66.6264 33.1303 67.0966 32.4482 67.7191 32.0111C68.3548 31.5608 69.0701 31.3357 69.8647 31.3357C70.6594 31.3357 71.3482 31.5145 71.9309 31.8721C72.5137 32.2164 72.9508 32.6866 73.2422 33.2826C73.5468 33.8787 73.6991 34.5475 73.6991 35.2892V38.1501C73.6991 39.9117 73.7322 41.3222 73.7985 42.3818H69.3283ZM84.0059 35.0906C82.7873 35.0111 81.6748 34.9515 80.6682 34.9118L80.6483 37.0177C80.6483 37.7329 80.8006 38.2958 81.1052 38.7064C81.4231 39.1037 81.9794 39.3024 82.7741 39.3024C83.0787 39.3024 83.3701 39.2759 83.6483 39.2229C83.5953 39.713 83.5688 40.2097 83.5688 40.713C83.5688 40.9514 83.582 41.4944 83.6085 42.3421C83.0257 42.4481 82.5357 42.5143 82.1383 42.5408C81.741 42.5673 81.2244 42.5805 80.5887 42.5805C79.0391 42.5805 77.9397 42.2097 77.2907 41.4679C76.655 40.713 76.3371 39.6666 76.3371 38.3289L76.357 34.9714C75.7345 34.9978 75.0855 35.0376 74.41 35.0906V31.5741C75.0987 31.5741 75.6815 31.3555 76.1583 30.9184C76.6351 30.4814 76.9199 29.9582 77.0126 29.3489H82.4165C81.741 30.2761 80.9927 31.0178 80.1715 31.5741H84.0059V35.0906ZM91.609 42.5805C90.4964 42.5805 89.364 42.4282 88.2117 42.1236C87.0726 41.8057 85.9998 41.3289 84.9932 40.6931L87.0792 37.8521C87.6885 38.2892 88.4236 38.6336 89.2845 38.8852C90.1454 39.1236 90.8871 39.2428 91.5096 39.2428C92.1056 39.2428 92.5626 39.1633 92.8805 39.0044C93.2116 38.8322 93.3771 38.6137 93.3771 38.3488C93.3771 38.1369 93.2977 37.9713 93.1387 37.8521C92.9798 37.7329 92.7613 37.6733 92.4831 37.6733C92.3109 37.6733 92.1123 37.6799 91.8871 37.6932C91.6752 37.7064 91.503 37.7197 91.3705 37.7329C90.6818 37.8124 89.9732 37.8521 89.2448 37.8521C88.066 37.8521 87.1057 37.6336 86.364 37.1965C85.6355 36.7462 85.2713 36.0177 85.2713 35.0111C85.2713 33.8456 85.821 32.9449 86.9203 32.3092C88.0196 31.6602 89.6355 31.3357 91.7679 31.3357C92.8142 31.3357 93.8672 31.488 94.9268 31.7926C95.9996 32.084 96.9466 32.5277 97.7678 33.1237L95.4831 35.4283C94.7281 35.031 94.0195 34.7528 93.3573 34.5939C92.7083 34.4217 92.0527 34.3356 91.3904 34.3356C90.9268 34.3356 90.5295 34.4283 90.1984 34.6138C89.8673 34.7992 89.7017 35.0111 89.7017 35.2495C89.7017 35.4349 89.7679 35.5806 89.9004 35.6866C90.0461 35.7925 90.2315 35.8455 90.4567 35.8455C90.6818 35.8455 90.9931 35.8257 91.3904 35.7859C92.3573 35.7197 93.0791 35.6866 93.5559 35.6866C94.9334 35.6866 95.9996 35.9184 96.7546 36.3819C97.5095 36.8455 97.887 37.5541 97.887 38.5077C97.887 39.9382 97.3307 40.9779 96.2181 41.6269C95.1056 42.2626 93.5692 42.5805 91.609 42.5805Z" fill="black"/>
</svg>
