<svg width="20" height="20" viewBox="0 0 20 20" fill="none" xmlns="http://www.w3.org/2000/svg">
<path d="M9.72222 7C8.94867 7 8.20681 7.31607 7.65983 7.87868C7.11285 8.44129 6.80556 9.20435 6.80556 10C6.80556 10.7956 7.11285 11.5587 7.65983 12.1213C8.20681 12.6839 8.94867 13 9.72222 13C10.4958 13 11.2376 12.6839 11.7846 12.1213C12.3316 11.5587 12.6389 10.7956 12.6389 10C12.6389 9.20435 12.3316 8.44129 11.7846 7.87868C11.2376 7.31607 10.4958 7 9.72222 7ZM9.72222 5C11.0115 5 12.2479 5.52678 13.1595 6.46447C14.0712 7.40215 14.5833 8.67392 14.5833 10C14.5833 11.3261 14.0712 12.5979 13.1595 13.5355C12.2479 14.4732 11.0115 15 9.72222 15C8.43297 15 7.19653 14.4732 6.2849 13.5355C5.37326 12.5979 4.86111 11.3261 4.86111 10C4.86111 8.67392 5.37326 7.40215 6.2849 6.46447C7.19653 5.52678 8.43297 5 9.72222 5ZM16.0417 4.75C16.0417 5.08152 15.9136 5.39946 15.6857 5.63388C15.4578 5.8683 15.1487 6 14.8264 6C14.5041 6 14.195 5.8683 13.9671 5.63388C13.7391 5.39946 13.6111 5.08152 13.6111 4.75C13.6111 4.41848 13.7391 4.10054 13.9671 3.86612C14.195 3.6317 14.5041 3.5 14.8264 3.5C15.1487 3.5 15.4578 3.6317 15.6857 3.86612C15.9136 4.10054 16.0417 4.41848 16.0417 4.75ZM9.72222 2C7.31694 2 6.92417 2.007 5.80514 2.058C5.04292 2.095 4.53153 2.2 4.05708 2.39C3.63514 2.558 3.33083 2.759 3.00708 3.093C2.70278 3.3954 2.46882 3.76458 2.32264 4.173C2.13792 4.663 2.03583 5.188 2.00083 5.971C1.95028 7.075 1.94444 7.461 1.94444 10C1.94444 12.474 1.95125 12.878 2.00083 14.029C2.03681 14.812 2.13889 15.339 2.32264 15.826C2.48792 16.261 2.68236 16.574 3.00514 16.906C3.33278 17.242 3.63708 17.443 4.05514 17.609C4.53542 17.8 5.04681 17.906 5.80514 17.942C6.87847 17.994 7.25375 18 9.72222 18C12.1275 18 12.5203 17.993 13.6393 17.942C14.3996 17.905 14.9119 17.8 15.3864 17.611C15.8074 17.442 16.1136 17.241 16.4364 16.909C16.764 16.572 16.9594 16.259 17.1208 15.829C17.3056 15.336 17.4086 14.809 17.4436 14.029C17.4942 12.925 17.5 12.539 17.5 10C17.5 7.526 17.4932 7.122 17.4436 5.971C17.4076 5.189 17.3056 4.661 17.1208 4.173C16.9743 3.765 16.7408 3.39596 16.4374 3.093C16.1435 2.77985 15.7845 2.53917 15.3874 2.389C14.911 2.199 14.3996 2.094 13.6393 2.058C12.566 2.006 12.1907 2 9.72222 2ZM9.72222 0C12.3637 0 12.6933 0.00999994 13.7297 0.0599999C14.7651 0.11 15.47 0.277 16.0903 0.525C16.7319 0.779 17.2725 1.123 17.8131 1.678C18.3074 2.1779 18.69 2.78259 18.934 3.45C19.1742 4.087 19.3375 4.813 19.3861 5.878C19.4318 6.944 19.4444 7.283 19.4444 10C19.4444 12.717 19.4347 13.056 19.3861 14.122C19.3375 15.187 19.1742 15.912 18.934 16.55C18.6907 17.2178 18.308 17.8226 17.8131 18.322C17.3269 18.8303 16.739 19.2238 16.0903 19.475C15.471 19.722 14.7651 19.89 13.7297 19.94C12.6933 19.987 12.3637 20 9.72222 20C7.08069 20 6.75111 19.99 5.71472 19.94C4.67931 19.89 3.97444 19.722 3.35417 19.475C2.70504 19.2245 2.11704 18.8309 1.63139 18.322C1.13692 17.8222 0.754378 17.2175 0.510417 16.55C0.269306 15.913 0.106944 15.187 0.0583333 14.122C0.0126388 13.056 0 12.717 0 10C0 7.283 0.00972217 6.944 0.0583333 5.878C0.106944 4.812 0.269306 4.088 0.510417 3.45C0.753702 2.78218 1.13634 2.17732 1.63139 1.678C2.11718 1.16923 2.70514 0.775729 3.35417 0.525C3.97444 0.277 4.67833 0.11 5.71472 0.0599999C6.75111 0.0129999 7.08069 0 9.72222 0Z" fill="black"/>
</svg>
