<svg width="133" height="51" viewBox="0 0 133 51" fill="none" xmlns="http://www.w3.org/2000/svg">
<path d="M25.9378 0L30.811 10.7067L41.1836 4.84827L38.6961 16.3136L50.606 17.5412L41.7079 25.3859L50.606 33.2306L38.6961 34.4581L41.1836 45.9235L30.811 40.0651L25.9378 50.7718L21.0645 40.0651L10.6919 45.9235L13.1794 34.4581L1.26948 33.2306L10.1676 25.3859L1.26948 17.5412L13.1794 16.3136L10.6919 4.84827L21.0645 10.7067L25.9378 0Z" fill="#C4FBB4"/>
<path d="M40.0902 11.9781C39.9975 14.2165 39.9512 16.6138 39.9512 19.17C39.9512 21.7395 39.9975 24.1435 40.0902 26.3818H32.9778L28.1699 15.5343L28.5275 26.3818H23.4216C23.5276 23.8123 23.5806 21.4084 23.5806 19.17C23.5806 16.9449 23.5276 14.5476 23.4216 11.9781H30.7328L35.5605 23.1236L35.2228 11.9781H40.0902ZM48.0758 26.5805C45.8109 26.5805 44.1421 26.064 43.0692 25.0309C42.0097 23.9845 41.4799 22.6137 41.4799 20.9183C41.4799 19.2627 42.0097 17.9184 43.0692 16.8853C44.1421 15.8522 45.8109 15.3357 48.0758 15.3357C49.5989 15.3357 50.8704 15.5873 51.8903 16.0906C52.9234 16.5807 53.685 17.2495 54.175 18.0972C54.6651 18.9316 54.9101 19.872 54.9101 20.9183C54.9101 22.6269 54.3406 23.9978 53.2015 25.0309C52.0757 26.064 50.3671 26.5805 48.0758 26.5805ZM48.1552 23.2031C49.0162 23.2031 49.6585 22.9978 50.0824 22.5872C50.5062 22.1766 50.7181 21.6269 50.7181 20.9382C50.7181 20.2892 50.5062 19.7594 50.0824 19.3488C49.6585 18.925 49.0162 18.7131 48.1552 18.7131C47.2943 18.7131 46.6652 18.9184 46.2679 19.329C45.8705 19.7396 45.6718 20.276 45.6718 20.9382C45.6718 21.6269 45.8705 22.1766 46.2679 22.5872C46.6652 22.9978 47.2943 23.2031 48.1552 23.2031ZM60.9165 18.4747C61.4728 16.4747 62.8569 15.4747 65.0688 15.4747C65.4529 15.4747 65.8237 15.5012 66.1813 15.5542L65.5456 20.0045C64.592 19.6468 63.8105 19.468 63.2013 19.468C62.4463 19.468 61.89 19.6932 61.5324 20.1435C61.1748 20.5939 60.996 21.1965 60.996 21.9514V21.9316L60.9761 23.2428C60.9761 24.1832 61.0026 25.2295 61.0556 26.3818H56.3073C56.4133 24.4746 56.4663 22.6733 56.4663 20.978C56.4663 19.2826 56.4133 17.4681 56.3073 15.5343C57.1815 15.5741 57.8503 15.5939 58.3139 15.5939C58.804 15.5939 59.4728 15.5741 60.3205 15.5343L60.9165 18.4747ZM76.7735 19.0906C75.555 19.0111 74.4424 18.9515 73.4358 18.9118L73.416 21.0177C73.416 21.7329 73.5683 22.2958 73.8729 22.7064C74.1908 23.1037 74.7471 23.3024 75.5417 23.3024C75.8464 23.3024 76.1378 23.2759 76.4159 23.2229C76.3629 23.713 76.3364 24.2097 76.3364 24.713C76.3364 24.9514 76.3497 25.4944 76.3762 26.3421C75.7934 26.4481 75.3033 26.5143 74.906 26.5408C74.5086 26.5673 73.9921 26.5805 73.3563 26.5805C71.8067 26.5805 70.7074 26.2097 70.0584 25.4679C69.4226 24.713 69.1048 23.6666 69.1048 22.3289L69.1246 18.9714C68.5021 18.9979 67.8531 19.0376 67.1776 19.0906V15.5741C67.8664 15.5741 68.4491 15.3555 68.926 14.9184C69.4028 14.4814 69.6875 13.9582 69.7802 13.3489H75.1841C74.5086 14.2761 73.7603 15.0178 72.9391 15.5741H76.7735V19.0906ZM85.7077 26.3818C85.7872 24.4348 85.8269 22.6402 85.8269 20.9978C85.8269 20.415 85.6812 19.9515 85.3898 19.6071C85.1117 19.2627 84.7541 19.0906 84.317 19.0906C83.8534 19.0906 83.4561 19.3157 83.125 19.7661C82.8071 20.2164 82.6482 20.8323 82.6482 21.6137L82.6283 21.574C82.6283 23.7329 82.6548 25.3355 82.7078 26.3818H77.9595C78.0655 24.4746 78.1184 21.8918 78.1184 18.6336C78.1184 15.3754 78.0655 12.7927 77.9595 10.8854H82.6879L82.7078 17.0045L82.6879 18.0575C83.0058 17.1303 83.476 16.4482 84.0985 16.0111C84.7342 15.5608 85.4494 15.3357 86.2441 15.3357C87.0388 15.3357 87.7275 15.5145 88.3103 15.8721C88.8931 16.2164 89.3302 16.6866 89.6216 17.2826C89.9262 17.8787 90.0785 18.5475 90.0785 19.2892V22.1501C90.0785 23.9117 90.1116 25.3222 90.1778 26.3818H85.7077ZM102.283 21.415H95.8065C95.9124 21.9978 96.1707 22.4746 96.5813 22.8455C97.0051 23.2031 97.6011 23.3819 98.3693 23.3819C98.9256 23.3819 99.4488 23.2759 99.9389 23.064C100.429 22.8388 100.82 22.5276 101.111 22.1302C101.998 22.5673 103.177 23.0375 104.647 23.5408C104.237 24.468 103.488 25.2097 102.402 25.766C101.33 26.309 99.9256 26.5805 98.1905 26.5805C95.9389 26.5805 94.2701 26.064 93.184 25.0309C92.1112 23.9845 91.5747 22.6137 91.5747 20.9183C91.5747 19.2627 92.1112 17.9184 93.184 16.8853C94.2568 15.8522 95.9257 15.3357 98.1905 15.3357C99.5415 15.3357 100.714 15.5608 101.707 16.0111C102.7 16.4615 103.462 17.0906 103.992 17.8985C104.522 18.6932 104.786 19.6071 104.786 20.6402C104.786 20.9846 104.773 21.2428 104.747 21.415H102.283ZM98.4687 18.3356C97.8064 18.3356 97.2634 18.4614 96.8396 18.7131C96.4157 18.9647 96.1177 19.3091 95.9455 19.7462H100.634C100.475 19.3223 100.217 18.9846 99.8594 18.733C99.5018 18.4681 99.0382 18.3356 98.4687 18.3356ZM110.779 18.4747C111.335 16.4747 112.719 15.4747 114.931 15.4747C115.315 15.4747 115.686 15.5012 116.043 15.5542L115.408 20.0045C114.454 19.6468 113.673 19.468 113.063 19.468C112.308 19.468 111.752 19.6932 111.394 20.1435C111.037 20.5939 110.858 21.1965 110.858 21.9514V21.9316L110.838 23.2428C110.838 24.1832 110.865 25.2295 110.918 26.3818H106.169C106.275 24.4746 106.328 22.6733 106.328 20.978C106.328 19.2826 106.275 17.4681 106.169 15.5343C107.044 15.5741 107.712 15.5939 108.176 15.5939C108.666 15.5939 109.335 15.5741 110.183 15.5343L110.779 18.4747ZM125.384 26.3818C125.463 24.4348 125.503 22.6402 125.503 20.9978C125.503 20.415 125.357 19.9515 125.066 19.6071C124.788 19.2627 124.43 19.0906 123.993 19.0906C123.556 19.0906 123.185 19.2892 122.881 19.6866C122.576 20.0707 122.397 20.6005 122.344 21.276C122.318 22.2826 122.305 22.9978 122.305 23.4216C122.305 24.3223 122.331 25.309 122.384 26.3818H117.636C117.742 24.4746 117.795 22.6733 117.795 20.978C117.795 19.2826 117.742 17.4681 117.636 15.5343C118.51 15.5741 119.179 15.5939 119.642 15.5939C120.132 15.5939 120.801 15.5741 121.649 15.5343L122.225 18.4548C122.53 17.3952 123.007 16.6138 123.656 16.1105C124.304 15.5939 125.059 15.3357 125.92 15.3357C126.715 15.3357 127.404 15.5145 127.987 15.8721C128.569 16.2164 129.006 16.6866 129.298 17.2826C129.602 17.8787 129.755 18.5475 129.755 19.2892V22.1501C129.755 23.9117 129.788 25.3222 129.854 26.3818H125.384ZM28.2692 38.3687C32.1102 38.3422 35.289 38.2759 37.8055 38.17C37.6333 38.8455 37.5274 39.4945 37.4876 40.117C37.4479 40.7395 37.428 41.4944 37.428 42.3818H23.4216C23.5276 39.8123 23.5806 37.4084 23.5806 35.17C23.5806 32.9317 23.5276 30.5277 23.4216 27.9582H28.2692V38.3687ZM42.0514 30.3622C41.2169 30.3622 40.5944 30.1569 40.1838 29.7463C39.7865 29.3357 39.5878 28.7993 39.5878 28.137C39.5878 27.488 39.7865 26.9516 40.1838 26.5278C40.5944 26.104 41.2169 25.892 42.0514 25.892C42.846 25.892 43.4553 26.1106 43.8791 26.5477C44.303 26.9715 44.5149 27.5013 44.5149 28.137C44.5149 28.7993 44.3096 29.3357 43.899 29.7463C43.4884 30.1569 42.8725 30.3622 42.0514 30.3622ZM39.7468 42.3818C39.8395 40.2494 39.8858 38.4879 39.8858 37.0972C39.8858 35.4416 39.8328 33.5873 39.7269 31.5343H44.495C44.3891 33.5078 44.3361 35.3621 44.3361 37.0972C44.3361 38.5541 44.3824 40.3156 44.4752 42.3818H39.7468ZM55.6734 31.5343H59.4879C59.4217 33.7065 59.3886 36.7925 59.3886 40.7925C59.3886 42.3686 59.0707 43.66 58.435 44.6666C57.8125 45.6732 56.9847 46.4016 55.9516 46.852C54.9185 47.3155 53.7662 47.5473 52.4947 47.5473C51.2364 47.5473 50.1106 47.3619 49.1173 46.991C48.1239 46.6334 47.3689 46.15 46.8524 45.5407L47.7464 42.501C48.4616 42.9116 49.1371 43.203 49.7729 43.3752C50.4086 43.5606 51.0709 43.6533 51.7596 43.6533C54.0112 43.6533 55.137 42.6997 55.137 40.7925C55.137 40.5143 55.1436 40.3156 55.1569 40.1964C55.1569 40.117 55.1569 40.011 55.1569 39.8786C55.1701 39.7461 55.1701 39.5739 55.1569 39.362C54.4814 41.2428 53.051 42.1832 50.8656 42.1832C49.9782 42.1832 49.1835 41.9448 48.4815 41.4679C47.7928 40.9911 47.2564 40.3488 46.8723 39.5408C46.4882 38.7196 46.2961 37.819 46.2961 36.8389C46.2961 35.8323 46.4882 34.9118 46.8723 34.0773C47.2564 33.2297 47.7928 32.5608 48.4815 32.0707C49.1702 31.5807 49.9451 31.3357 50.806 31.3357C53.0443 31.3357 54.5013 32.1237 55.1768 33.6999L55.6734 31.5343ZM52.9318 39.0044C53.2364 39.0044 53.5543 38.9382 53.8854 38.8057C54.2165 38.66 54.5013 38.4349 54.7397 38.1302C54.9781 37.8124 55.0973 37.4217 55.0973 36.9581C55.0973 36.1369 54.9119 35.5541 54.541 35.2098C54.1702 34.8522 53.6205 34.6734 52.892 34.6734C52.2563 34.6734 51.753 34.8853 51.3821 35.3091C51.0113 35.7329 50.8258 36.2826 50.8258 36.9581C50.8258 37.5673 51.0245 38.064 51.4219 38.4481C51.8324 38.819 52.3357 39.0044 52.9318 39.0044ZM68.8283 42.3818C68.9078 40.4348 68.9475 38.6402 68.9475 36.9978C68.9475 36.415 68.8018 35.9515 68.5105 35.6071C68.2323 35.2627 67.8747 35.0906 67.4376 35.0906C66.9741 35.0906 66.5767 35.3157 66.2456 35.766C65.9277 36.2164 65.7688 36.8323 65.7688 37.6137L65.7489 37.574C65.7489 39.7329 65.7754 41.3355 65.8284 42.3818H61.0801C61.1861 40.4746 61.2391 37.8918 61.2391 34.6336C61.2391 31.3754 61.1861 28.7927 61.0801 26.8854H65.8085L65.8284 33.0045L65.8085 34.0575C66.1264 33.1303 66.5966 32.4482 67.2191 32.0111C67.8548 31.5608 68.5701 31.3357 69.3647 31.3357C70.1594 31.3357 70.8482 31.5145 71.4309 31.8721C72.0137 32.2164 72.4508 32.6866 72.7422 33.2826C73.0468 33.8787 73.1991 34.5475 73.1991 35.2892V38.1501C73.1991 39.9117 73.2322 41.3222 73.2985 42.3818H68.8283ZM83.5059 35.0906C82.2873 35.0111 81.1748 34.9515 80.1682 34.9118L80.1483 37.0177C80.1483 37.7329 80.3006 38.2958 80.6052 38.7064C80.9231 39.1037 81.4794 39.3024 82.2741 39.3024C82.5787 39.3024 82.8701 39.2759 83.1483 39.2229C83.0953 39.713 83.0688 40.2097 83.0688 40.713C83.0688 40.9514 83.082 41.4944 83.1085 42.3421C82.5257 42.4481 82.0357 42.5143 81.6383 42.5408C81.241 42.5673 80.7244 42.5805 80.0887 42.5805C78.5391 42.5805 77.4397 42.2097 76.7907 41.4679C76.155 40.713 75.8371 39.6666 75.8371 38.3289L75.857 34.9714C75.2345 34.9978 74.5855 35.0376 73.91 35.0906V31.5741C74.5987 31.5741 75.1815 31.3555 75.6583 30.9184C76.1351 30.4814 76.4199 29.9582 76.5126 29.3489H81.9165C81.241 30.2761 80.4927 31.0178 79.6715 31.5741H83.5059V35.0906ZM91.109 42.5805C89.9964 42.5805 88.864 42.4282 87.7117 42.1236C86.5726 41.8057 85.4998 41.3289 84.4932 40.6931L86.5792 37.8521C87.1885 38.2892 87.9236 38.6336 88.7845 38.8852C89.6454 39.1236 90.3871 39.2428 91.0096 39.2428C91.6056 39.2428 92.0626 39.1633 92.3805 39.0044C92.7116 38.8322 92.8771 38.6137 92.8771 38.3488C92.8771 38.1369 92.7977 37.9713 92.6387 37.8521C92.4798 37.7329 92.2613 37.6733 91.9831 37.6733C91.8109 37.6733 91.6123 37.6799 91.3871 37.6932C91.1752 37.7064 91.003 37.7197 90.8705 37.7329C90.1818 37.8124 89.4732 37.8521 88.7448 37.8521C87.566 37.8521 86.6057 37.6336 85.864 37.1965C85.1355 36.7462 84.7713 36.0177 84.7713 35.0111C84.7713 33.8456 85.321 32.9449 86.4203 32.3092C87.5196 31.6602 89.1355 31.3357 91.2679 31.3357C92.3142 31.3357 93.3672 31.488 94.4268 31.7926C95.4996 32.084 96.4466 32.5277 97.2678 33.1237L94.9831 35.4283C94.2281 35.031 93.5195 34.7528 92.8573 34.5939C92.2083 34.4217 91.5527 34.3356 90.8904 34.3356C90.4268 34.3356 90.0295 34.4283 89.6984 34.6138C89.3673 34.7992 89.2017 35.0111 89.2017 35.2495C89.2017 35.4349 89.2679 35.5806 89.4004 35.6866C89.5461 35.7925 89.7315 35.8455 89.9567 35.8455C90.1818 35.8455 90.4931 35.8257 90.8904 35.7859C91.8573 35.7197 92.5791 35.6866 93.0559 35.6866C94.4334 35.6866 95.4996 35.9184 96.2546 36.3819C97.0095 36.8455 97.387 37.5541 97.387 38.5077C97.387 39.9382 96.8307 40.9779 95.7181 41.6269C94.6056 42.2626 93.0692 42.5805 91.109 42.5805Z" fill="black"/>
</svg>
