<svg width="26" height="20" viewBox="0 0 26 20" fill="none" xmlns="http://www.w3.org/2000/svg">
<path d="M22.1374 3.74375C22.0438 3.37125 21.7777 3.09 21.4733 3.00375C20.9349 2.85 18.3104 2.5 12.7658 2.5C7.22112 2.5 4.59912 2.85 4.05575 3.00375C3.7551 3.08875 3.48896 3.37 3.39409 3.74375C3.25978 4.27375 2.90862 6.495 2.90862 10C2.90862 13.505 3.25978 15.725 3.39409 16.2575C3.48773 16.6287 3.75387 16.91 4.05698 16.995C4.59912 17.15 7.22112 17.5 12.7658 17.5C18.3104 17.5 20.9336 17.15 21.4758 16.9963C21.7764 16.9113 22.0426 16.63 22.1374 16.2562C22.2717 15.7262 22.6229 13.5 22.6229 10C22.6229 6.5 22.2717 4.275 22.1374 3.74375ZM24.5241 3.1225C25.0872 5.35 25.0872 10 25.0872 10C25.0872 10 25.0872 14.65 24.5241 16.8775C24.2111 18.1088 23.2957 19.0775 22.1362 19.405C20.0305 20 12.7658 20 12.7658 20C12.7658 20 5.50475 20 3.39532 19.405C2.23094 19.0725 1.31669 18.105 1.00743 16.8775C0.444336 14.65 0.444336 10 0.444336 10C0.444336 10 0.444336 5.35 1.00743 3.1225C1.32039 1.89125 2.23587 0.9225 3.39532 0.595C5.50475 -2.23517e-07 12.7658 0 12.7658 0C12.7658 0 20.0305 -2.23517e-07 22.1362 0.595C23.3006 0.9275 24.2148 1.895 24.5241 3.1225ZM10.3015 14.375V5.625L17.6943 10L10.3015 14.375Z" fill="black"/>
</svg>
